PathFileType	4	(X/Y/Z)	Walk1_0-155.trc
DataRate	CameraRate	NumFrames	NumMarkers	Units	OrigDataRate	OrigDataStartFrame	OrigNumFrames
30	30	7	22	m	30	116	155
Frame#	Time	Hip			RHip			RKnee			RAnkle			RBigToe			RSmallToe			RHeel			LHip			LKnee			LAnkle			LBigToe			LSmallToe			LHeel			Neck			Head			Nose			RShoulder			RElbow			RWrist			LShoulder			LElbow			LWrist		
		X1	Y1	Z1	X2	Y2	Z2	X3	Y3	Z3	X4	Y4	Z4	X5	Y5	Z5	X6	Y6	Z6	X7	Y7	Z7	X8	Y8	Z8	X9	Y9	Z9	X10	Y10	Z10	X11	Y11	Z11	X12	Y12	Z12	X13	Y13	Z13	X14	Y14	Z14	X15	Y15	Z15	X16	Y16	Z16	X17	Y17	Z17	X18	Y18	Z18	X19	Y19	Z19	X20	Y20	Z20	X21	Y21	Z21	X22	Y22	Z22
117	3.9	0.9985545433820695	0.9085808176284216	0.4098609939339884	0.9783772618567819	0.8825165052392308	0.522473052930629	0.9138575415314689	0.5200915620159602	0.48551723317851625	0.8532383738328778	0.11022409716320707	0.44325979917688607	1.0518418572017427	0.03948257833684375	0.4650015628652261	0.9953339595580813	0.027861423668412582	0.5180547112827723	0.7989364422378264	0.03793078533271464	0.42656752272074366	1.0152819378555016	0.8865376017150777	0.3029904487924925	1.2101589331562759	0.5657490448220616	0.3155201105615526	1.042622858076952	0.21240625576368496	0.32065247248197715	1.1978345990261137	0.08221955116431824	0.3105428540758969	1.163207943003653	0.08819343042701566	0.2637110553575695	0.9922510484054761	0.1520200190807366	0.3336128711077768	0.9144917557806406	1.5995418566918373	0.3986783660138794	0.995222652897011	1.8518260507760913	0.4353830824889069	1.0917291588681386	1.6809063262534707	0.4221140612803717	0.8921832842634989	1.473716263335498	0.5790540741515071	1.011117934605922	1.1813725140134914	0.6559945892487478	1.2588302043703152	0.9730148787867283	0.6529573924305228	0.9250066498562856	1.482173771244214	0.2349788698386957	0.870777556849297	1.160558721701402	0.16410275506696428	0.9124862205316788	0.9033000280931345	0.12909893898597197
118	3.933333333333333	1.035388021620057	0.9053115343203805	0.4088322841899801	1.0119351574604192	0.8802640903502843	0.521103730482174	0.9291339446762075	0.5190278334778465	0.4850043277053147	0.854658977920062	0.11140139406417325	0.4433069532328665	1.0528453490616207	0.035780418377878695	0.47216137843416656	0.9956378785553435	0.027551450237679798	0.5238178213763087	0.8002380931741074	0.04157311896584946	0.4233680756405012	1.0562124943608462	0.8825264965702737	0.30330327656699646	1.2603621124631719	0.5603692347468547	0.32278170531987005	1.1614733980489806	0.1812459116818922	0.321215185480509	1.34827403958273	0.08841149560414512	0.3123990701792815	1.3112856658230476	0.08552491144815534	0.26732989174356825	1.1214972027904129	0.111382541893731	0.33261818319180325	0.9573149437259975	1.5975875058890054	0.3991195912745192	1.0374256636461339	1.8497014504692777	0.43264094536353775	1.1346896322557636	1.6765702974336194	0.42262385675192865	0.9367906088543675	1.4729250354254015	0.5796547972322151	1.0685526128523009	1.1842258960225571	0.6620459542916521	1.3235224491999122	0.9910828340462073	0.6553109093491136	0.9688140616631183	1.4785885679547073	0.23923419096925258	0.9054011050243587	1.1572998744590837	0.16403842107454822	0.9381520613386921	0.8991295753124033	0.12272411111196677
119	3.966666666666667	1.0745006899371863	0.8994418715956528	0.4081326638317792	1.0485425963887938	0.8748262954977954	0.5191793287093811	0.9479802004635409	0.516125540117404	0.4843921313847449	0.85583092610165	0.11335814930688823	0.4437311893204841	1.0544097489731117	0.03083367508784278	0.47752639028252847	0.9984396327575552	0.02649991206149872	0.5260725863930239	0.8011708442947594	0.04586150409237839	0.4218497892586621	1.097932197654798	0.8750807744885415	0.3044284226816123	1.3039944584668224	0.5487178883018119	0.3283474920663544	1.2750121044905636	0.15618458678310898	0.32059225231524424	1.4845850730909853	0.09802204311393513	0.31224791456434037	1.4460654492266105	0.08789762996635267	0.2680663977140467	1.244275872621912	0.0795263956638371	0.3292308960414317	1.0009386220936958	1.5928416482595273	0.3987707269469207	1.079348670471548	1.8445430501667424	0.42976530040831884	1.1792661535845286	1.6705988811975816	0.4210953320800791	0.9816512061320928	1.469247630220398	0.5791666427248991	1.1241748776880633	1.1835802590981725	0.6665279539509319	1.3811263064806951	1.0057100082898192	0.6564547868019501	1.0136480126897416	1.4723728227530855	0.24222021563566873	0.945391871149338	1.1520312527616061	0.1637685273707377	0.9666056035963634	0.893711456404294	0.11717400192027475
120	4.0	1.1163852496253648	0.8916397692838199	0.40764557149691594	1.088654073080685	0.8671300516172108	0.5170167790181517	0.971980432155814	0.5121001976029878	0.48394012857845137	0.8572922434207553	0.116979410311532	0.4446172089668647	1.0559494244179997	0.026390129441257373	0.4797827017201195	1.0020657087579647	0.025500007270336984	0.5244310086608339	0.8017739847338106	0.05153271955474606	0.4226562155785703	1.14086966882407	0.8654124813605995	0.30583805329611885	1.3449059288979133	0.5342317574279709	0.33286782479764376	1.3767934040667877	0.13807891962072497	0.31980807330817107	1.599324419114683	0.10881385099353316	0.3108240770596638	1.5600017561176904	0.09322722822037663	0.2665971046501967	1.3539143000897658	0.05692170241260797	0.3249102128103671	1.044905570764358	1.5858446347407682	0.3971122078156632	1.1215385559062616	1.8372029193241328	0.4272462176904745	1.2249114769796767	1.6637148000757822	0.4173895215491387	1.026780541793848	1.4631093274060782	0.5773432867590015	1.1768477660571857	1.1799833513023974	0.6678728676249819	1.434241431437324	1.0156635876419944	0.6550308579517214	1.0593426849769396	1.4644953940767238	0.2435177293214076	0.9902069604548871	1.1450943593618033	0.16457199006320816	0.9986316412280513	0.8871414615413801	0.11252370066949845
121	4.033333333333333	1.1613225230784425	0.8827961690836821	0.4071692484342949	1.1323797317728923	0.8585485862782103	0.5150033330747028	1.002923335725889	0.5074456586196148	0.4838372621306107	0.8601121732187146	0.12334156541223229	0.44587986933754636	1.0566134688698376	0.023433747051712406	0.47856174766888937	1.0043113550249674	0.02508712816922344	0.5196111733429446	0.8024204987298175	0.06000189242537743	0.42539469771254496	1.1856858262100758	0.8552022994541082	0.30692468708072074	1.3860675769844248	0.5206866347379429	0.3365196786638178	1.4614462556120307	0.12524867390525357	0.31978647273453564	1.6888570870725204	0.11577466386841885	0.31002253915822625	1.6495130505415159	0.09664100568784775	0.26498160161871653	1.4443424381301804	0.04150939440985234	0.32127051539701756	1.088956698416458	1.577464180455348	0.39397660639312493	1.164405575485675	1.8288198887010605	0.4251430501799544	1.270907333375746	1.65710075627716	0.4114932067403126	1.0720268196526586	1.4552821878999418	0.574082381338143	1.2255823759654207	1.1741250867656448	0.6653341963619795	1.4835469289103913	1.0201821479117101	0.6511716393958826	1.1056991306242594	1.4560880218423156	0.24329605161314077	1.0389358812130598	1.1367393961930161	0.16728525199497535	1.0364328538741425	0.8791681766766384	0.10764759992193332
122	4.066666666666666	1.2093515390578402	0.87395829139642	0.4062891985609592	1.179547123921055	0.850586246975587	0.5132474063427137	1.0426516824206358	0.502464192423029	0.4842636431286525	0.8663108088213621	0.1338180783375994	0.44760548341500433	1.0553036335857136	0.021674342161752715	0.4746981445179463	1.00359637149481	0.025446208739654357	0.5131557535706441	0.8043391991802183	0.0735133106612746	0.4287008567066578	1.2329293495273814	0.8462007272684853	0.3070014403372239	1.4286127110751894	0.5107640476612034	0.3388053882293226	1.52624041842397	0.1154937647939572	0.320826532574084	1.7533729748092004	0.11459780039128357	0.31108990367802586	1.7146339775274613	0.09393065110042229	0.26491625531599383	1.5118834437574653	0.030817050916107383	0.3193424701401607	1.1330033251807836	1.5688086047019416	0.3895788560789191	1.2081505412469031	1.8206469322865726	0.4231983659642813	1.3168914531864817	1.6520895381177654	0.40322697805495933	1.1171407718657342	1.4468420423064128	0.5694902060556079	1.2702039791205353	1.1666353983127309	0.6595600170807572	1.5284671506258765	1.0189256750609001	0.6457226834012251	1.1522298534025677	1.448207173407974	0.24195213512461172	1.0904276469996972	1.1276904941168926	0.17126719450827738	1.0823465831306447	0.869888533096709	0.10165886306060548
123	4.1	1.2601356852178327	0.8662755610142103	0.4044880732076873	1.2298880303406725	0.8444705352791146	0.5115197117188626	1.092701912127587	0.4975208422306406	0.48544710024341353	0.878985021192239	0.1499886072557445	0.45015950487540624	1.0514668665164784	0.02032634306134866	0.4697831598612472	1.0000487897675399	0.02698030584827871	0.5069312899304926	0.8101632119455647	0.09453323864515421	0.4311458484420789	1.2825340460108998	0.8397457999132812	0.30545199493190706	1.4716558811428488	0.5053432949105096	0.33879882588126764	1.571642836443005	0.10762585070926631	0.322607927204951	1.7958848623351795	0.10451619248548387	0.313821996903566	1.7579916593033313	0.0841145204465804	0.26670371353459144	1.5564368443210324	0.02342006650914904	0.31928263074725943	1.1769805076349062	1.5611039339820902	0.3844124474336309	1.2525330980476101	1.813826090751607	0.420957244159938	1.3627695136534255	1.6496296046601266	0.39269165684242063	1.1618729724950554	1.4390019220521826	0.5639468483257244	1.3107739562776646	1.1582745631743567	0.6518058129341542	1.5679003815806238	1.0120229223743091	0.6395253737240472	1.1980859322728292	1.4417092556488202	0.23969843457827705	1.1434571828398994	1.1192216464703617	0.17488040741537425	1.1373343202974604	0.8602636223972457	0.09533581293485784
